<?xml version="1.0"?>
<!DOCTYPE svg PUBLIC "-//W3C//DTD SVG 1.1//EN" "http://www.w3.org/Graphics/SVG/1.1/DTD/svg11.dtd">
<svg xmlns="http://www.w3.org/2000/svg" xmlns:xl="http://www.w3.org/1999/xlink" version="1.1" viewBox="-11 -7 136 193" width="136pt" height="193pt"><metadata xmlns:dc="http://purl.org/dc/elements/1.1/"><dc:date>2016-06-22 11:54Z</dc:date><!-- Produced by OmniGraffle Professional 5.4.4 --></metadata><defs><filter id="Shadow" filterUnits="userSpaceOnUse"><feGaussianBlur in="SourceAlpha" result="blur" stdDeviation="3.488"/><feOffset in="blur" result="offset" dx="0" dy="4"/><feFlood flood-color="black" flood-opacity=".75" result="flood"/><feComposite in="flood" in2="offset" operator="in" result="color"/><feMerge><feMergeNode in="color"/><feMergeNode in="SourceGraphic"/></feMerge></filter><linearGradient x1="0" x2="1" id="Gradient" gradientUnits="userSpaceOnUse"><stop offset="0" stop-color="#804000"/><stop offset="1" stop-color="#ff8000"/></linearGradient><linearGradient id="Obj_Gradient" xl:href="#Gradient" gradientTransform="translate(120.07904 73.95519) rotate(150) scale(146.38398)"/></defs><g stroke="none" stroke-opacity="1" stroke-dasharray="none" fill="none" fill-opacity="1"><title>Canvas 1</title><g><title>Laag 1</title><g filter="url(#Shadow)"><path d="M 9536743e-13 158.74016 L 9536743e-13 72.000004 L 11.3385836 62.36221 L 113.38583 62.36221 L 113.38583 149.10237 L 102.047244 158.74016 Z" fill="url(#Obj_Gradient)"/><path d="M 9536743e-13 158.74016 L 9536743e-13 72.000004 L 11.3385836 62.36221 L 113.38583 62.36221 L 113.38583 149.10237 L 102.047244 158.74016 L 9536743e-13 158.74016 M 9536743e-13 72.000004 L 102.047244 72.000004 L 113.38583 62.36221 M 102.047244 72.000004 L 102.047244 158.74016" stroke="#999" stroke-linecap="round" stroke-linejoin="round" stroke-width="1"/></g><g filter="url(#Shadow)"><path d="M 85.03937 130.39371 L 113.38583 150.23623 L 85.03937 170.07875 Z" fill="#ff8000"/><path d="M 85.03937 130.39371 L 113.38583 150.23623 L 85.03937 170.07875 Z" stroke="#ff8000" stroke-linecap="round" stroke-linejoin="round" stroke-width="1"/></g><g filter="url(#Shadow)"><path d="M 45.354335 0 L 73.700793 0 L 73.700793 51.362206 L 87.87402 51.362206 L 59.527564 62.362206 L 31.181106 51.362206 L 45.354335 51.362206 Z" fill="red"/><path d="M 45.354335 0 L 73.700793 0 L 73.700793 51.362206 L 87.87402 51.362206 L 59.527564 62.362206 L 31.181106 51.362206 L 45.354335 51.362206 Z" stroke="#ff8000" stroke-linecap="round" stroke-linejoin="round" stroke-width="1"/></g></g></g></svg>
